# xmcd
# 
# Track frame offsets:
#     150
#     23462
#     41295
#     59390
#     76607
#     93252
#     109067
#     124002
#     137302
#     154922
#     178032
#     195425
#     212387
#     227822
#     243587
#     257287
#     274687
#     295107
#     311595
#     331205
# 
# Disc length: 4618
# 
# Revision: 4
# Processed by: cddbd v1.5.2PL0 Copyright (c) Steve Scherf et al.
# Submitted via: fre:ac v1.0.17
# 
DISCID=f9120814
DTITLE=Various Artist - Bravo Hits 6 - CD2\n
DYEAR=1994
DGENRE=Pop
TTITLE0=Meat Loaf - Rock and roll dreams come through
TTITLE1=D:Ream - Things can only get better
TTITLE2=Enigma - Return to innocence
TTITLE3=Cinematic, Heinz Rühmann - Unser lied (LaLeLu)
TTITLE4=Janet Jackson - Again
TTITLE5=Die Fantastischen Vier - Tag am meer
TTITLE6=Bitty McLean - Here i stand
TTITLE7=Right Said Fred - Hands up (4 Lovers)
TTITLE8=Snoop Doggy Dogg - What's my name?
TTITLE9=UB 40 - Bring me your cup
TTITLE10=Laura Pausini - Non c'è
TTITLE11=Orchestral Manoeuvres In The Dark - Everyday
TTITLE12=Wooden Heart - We belong together
TTITLE13=Mr. Big - Nothing but love
TTITLE14=Stephan Massimo - Fever
TTITLE15=Inspiral Carpets - Saturn 5
TTITLE16=Depeche Mode - In your room
TTITLE17=Nationalgalerie - Evelin
TTITLE18=Scorpions - Partners in crime (Bonus Track)
TTITLE19=Chris Rea - Don't turn away (Bonus Track)
EXTD=
EXTT0=
EXTT1=
EXTT2=
EXTT3=
EXTT4=
EXTT5=
EXTT6=
EXTT7=
EXTT8=
EXTT9=
EXTT10=
EXTT11=
EXTT12=
EXTT13=
EXTT14=
EXTT15=
EXTT16=
EXTT17=
EXTT18=
EXTT19=
PLAYORDER=
